<?xml version="1.0" standalone="no"?>
<!DOCTYPE svg PUBLIC "-//W3C//DTD SVG 20010904//EN"
 "http://www.w3.org/TR/2001/REC-SVG-20010904/DTD/svg10.dtd">
<svg version="1.0" xmlns="http://www.w3.org/2000/svg"
 width="225.000000pt" height="225.000000pt" viewBox="0 0 225.000000 225.000000"
 preserveAspectRatio="xMidYMid meet">
<metadata>
Created by potrace 1.14, written by Peter Selinger 2001-2017
</metadata>
<g transform="translate(0.000000,225.000000) scale(0.100000,-0.100000)"
fill="#000000" stroke="none">
<path d="M913 1955 c-187 -41 -351 -188 -415 -373 -23 -66 -23 -75 -23 -457 0
-382 0 -391 23 -457 65 -188 228 -333 420 -373 88 -19 326 -19 414 0 141 29
282 126 359 246 66 103 106 275 80 342 -13 33 -69 60 -105 51 -45 -11 -65 -45
-76 -128 -17 -138 -95 -247 -218 -304 -55 -26 -62 -27 -247 -27 -185 0 -192 1
-247 27 -76 35 -138 95 -179 170 l-34 63 0 390 0 390 34 63 c41 75 103 135
179 170 55 26 62 27 247 27 185 0 192 -1 247 -27 123 -57 201 -166 218 -304
14 -112 59 -152 135 -120 46 20 59 53 51 138 -12 135 -73 256 -181 357 -75 69
-162 115 -260 136 -89 19 -336 19 -422 0z"/>
</g>
</svg>
