<svg version="1.0" xmlns="http://www.w3.org/2000/svg" width="300" height="300" viewBox="0 0 225 225"><path d="M91.3 29.5c-18.7 4.1-35.1 18.8-41.5 37.3-2.3 6.6-2.3 7.5-2.3 45.7s0 39.1 2.3 45.7c6.5 18.8 22.8 33.3 42 37.3 8.8 1.9 32.6 1.9 41.4 0 14.1-2.9 28.2-12.6 35.9-24.6 6.6-10.3 10.6-27.5 8-34.2-1.3-3.3-6.9-6-10.5-5.1-4.5 1.1-6.5 4.5-7.6 12.8-1.7 13.8-9.5 24.7-21.8 30.4-5.5 2.6-6.2 2.7-24.7 2.7s-19.2-.1-24.7-2.7c-7.6-3.5-13.8-9.5-17.9-17l-3.4-6.3v-78l3.4-6.3c4.1-7.5 10.3-13.5 17.9-17 5.5-2.6 6.2-2.7 24.7-2.7s19.2.1 24.7 2.7c12.3 5.7 20.1 16.6 21.8 30.4 1.4 11.2 5.9 15.2 13.5 12 4.6-2 5.9-5.3 5.1-13.8-1.2-13.5-7.3-25.6-18.1-35.7-7.5-6.9-16.2-11.5-26-13.6-8.9-1.9-33.6-1.9-42.2 0z"/></svg>